<?xml version="1.0" encoding="utf-8"?>
<!-- Generator: Adobe Illustrator 23.0.1, SVG Export Plug-In . SVG Version: 6.00 Build 0)  -->
<svg version="1.1" id="Capa_1" xmlns="http://www.w3.org/2000/svg" xmlns:xlink="http://www.w3.org/1999/xlink" x="0px" y="0px"
	 viewBox="0 0 512 512" style="enable-background:new 0 0 512 512;" xml:space="preserve">
<style type="text/css">
	.st0{fill:#F58A14;}
</style>
<path class="st0" d="M158.3,308.9c-11.2-5.2-23.5-8.1-36.7-8.1c-49.5,0-89.6,40.1-89.6,89.6S72.1,480,121.6,480s89.6-40.1,89.6-89.6
	c0-13.2-2.9-25.5-8.1-36.7l52.9-52.9l52.9,52.9c-5.2,11.2-8.1,23.5-8.1,36.7c0,49.5,40.1,89.6,89.6,89.6s89.6-40.1,89.6-89.6
	s-40.1-89.6-89.6-89.6c-13.2,0-25.5,2.9-36.7,8.1L300.8,256L457.6,99.2V32h-22.4L158.3,308.9z M166.4,390.4
	c0,24.6-19.9,44.8-44.8,44.8S76.8,415,76.8,390.4c0-24.6,19.9-44.8,44.8-44.8S166.4,365.8,166.4,390.4L166.4,390.4z M435.2,390.4
	c0,24.6-19.9,44.8-44.8,44.8s-44.8-20.2-44.8-44.8s19.9-44.8,44.8-44.8S435.2,365.8,435.2,390.4z M267.2,256
	c0,6.3-4.9,11.2-11.2,11.2c-6.3,0-11.2-4.9-11.2-11.2c0-6.3,4.9-11.2,11.2-11.2C262.3,244.8,267.2,249.7,267.2,256z M54.4,99.2
	l134.4,134.4l44.8-44.8L76.8,32H54.4V99.2z"/>
</svg>
